<svg width="32" height="16" viewBox="0 0 32 16" fill="none" xmlns="http://www.w3.org/2000/svg">
<rect width="32" height="16" rx="2" fill="#EE2E24"/>
<path d="M29.526 3.55337C29.4493 3.70622 29.2994 3.76975 29.1629 3.84893C28.951 3.97184 28.738 4.09299 28.5255 4.21496C28.5167 4.22004 28.5086 4.22626 28.4996 4.23237C28.5106 4.25621 28.5335 4.25735 28.5515 4.26429C28.7012 4.32212 28.8519 4.37725 29.0011 4.43653C29.145 4.49374 29.237 4.64121 29.2252 4.78847C29.2122 4.95149 29.0999 5.0859 28.9452 5.12165C28.8706 5.13886 28.7975 5.12839 28.7266 5.10186C28.5086 5.02009 28.291 4.93687 28.0725 4.85594C27.9915 4.82588 27.9928 4.82796 27.9935 4.91273C27.9949 5.07305 27.9991 5.23327 27.9856 5.39359C27.9698 5.58054 27.8132 5.7218 27.6165 5.71972C27.4321 5.71775 27.2784 5.56686 27.2644 5.3853C27.2516 5.21948 27.2643 5.0544 27.2651 4.8891C27.2654 4.82495 27.2618 4.82236 27.2005 4.84526C26.9904 4.92371 26.7805 5.00289 26.5704 5.08134C26.4876 5.11222 26.405 5.13937 26.3135 5.12103C26.1611 5.09036 26.0552 4.97242 26.0294 4.79863C26.0089 4.6609 26.0835 4.51602 26.2144 4.45228C26.3464 4.38793 26.4885 4.34834 26.6254 4.2959C26.6731 4.27756 26.7208 4.2589 26.774 4.23838C26.7504 4.21196 26.7251 4.20139 26.7018 4.18823C26.4569 4.04998 26.2116 3.91235 25.9672 3.77317C25.9269 3.75027 25.8894 3.72198 25.8522 3.6941C25.707 3.58518 25.7021 3.35605 25.7781 3.23853C25.8786 3.08297 26.0792 3.01913 26.2356 3.09862C26.4495 3.20733 26.6536 3.33387 26.8626 3.45139C26.8893 3.46642 26.9161 3.48134 26.9428 3.49626C26.9597 3.47429 26.9444 3.45978 26.9392 3.44517C26.8353 3.15075 26.7308 2.85664 26.6269 2.56232C26.6074 2.50698 26.5892 2.45081 26.5829 2.39236C26.5642 2.21908 26.6521 2.07669 26.8149 2.01316C26.8246 2.00943 26.8337 2.00456 26.843 2.00021C26.9086 2.00021 26.9742 2.00021 27.0398 2.00021C27.1561 2.04145 27.2338 2.12187 27.2787 2.23546C27.2913 2.26748 27.3042 2.2995 27.3156 2.33204C27.4075 2.59579 27.499 2.85964 27.5909 3.12339C27.6007 3.15147 27.6116 3.17904 27.626 3.21749C27.635 3.19541 27.6392 3.18629 27.6425 3.17686C27.7443 2.88918 27.8503 2.60284 27.9459 2.31308C27.9944 2.16602 28.0722 2.05451 28.2208 2C28.283 2 28.3452 2 28.4072 2C28.4711 2.03026 28.5373 2.05669 28.584 2.11358C28.6781 2.22841 28.6923 2.35795 28.6457 2.49371C28.5359 2.81352 28.4223 3.13199 28.3106 3.45118C28.3053 3.46642 28.2929 3.48144 28.3033 3.50207C28.3424 3.4915 28.3751 3.46901 28.4091 3.44963C28.6144 3.33231 28.818 3.2121 29.0275 3.10225C29.0892 3.06991 29.1541 3.05976 29.2231 3.07043C29.3717 3.09334 29.469 3.17914 29.526 3.31501C29.526 3.3946 29.526 3.47398 29.526 3.55337ZM28.4306 4.23735C28.3168 4.19527 28.2189 4.15745 28.1198 4.12314C28.0786 4.10895 28.0665 4.09143 28.0828 4.04759C28.1355 3.90531 28.1845 3.76157 28.234 3.61803C28.2391 3.60332 28.2558 3.58425 28.2376 3.5715C28.2235 3.56166 28.2099 3.58041 28.1972 3.58798C28.0872 3.65296 27.9776 3.71835 27.8626 3.77421C27.8242 3.79286 27.8035 3.78675 27.7904 3.74353C27.7708 3.67918 27.7463 3.61648 27.7236 3.55316C27.6931 3.46828 27.6623 3.38341 27.6317 3.29853C27.5767 3.42092 27.5344 3.54279 27.4896 3.66374C27.4731 3.70809 27.4742 3.77638 27.4327 3.78955C27.3934 3.80198 27.3477 3.7539 27.3056 3.73099C27.2106 3.67949 27.1164 3.62674 27.0125 3.56932C27.0192 3.58933 27.0221 3.59865 27.0253 3.60788C27.077 3.75607 27.1277 3.90468 27.1812 4.05226C27.1948 4.09008 27.1873 4.10863 27.1492 4.12169C27.0595 4.15237 26.9705 4.18553 26.8817 4.2188C26.8682 4.22388 26.8473 4.22605 26.8467 4.24439C26.8463 4.25973 26.8657 4.26243 26.8772 4.26885C26.9931 4.33393 27.1081 4.40067 27.2258 4.46203C27.2738 4.487 27.2944 4.51768 27.2899 4.57167C27.2856 4.62307 27.2888 4.6751 27.2889 4.72691C27.289 4.79034 27.2894 4.79075 27.3465 4.77034C27.4163 4.74536 27.4866 4.72121 27.5553 4.69344C27.6046 4.67354 27.6508 4.67261 27.7004 4.69334C27.7751 4.72474 27.8516 4.75199 27.9272 4.78132C27.9583 4.79334 27.9723 4.78464 27.9711 4.75002C27.9695 4.71043 27.9699 4.67064 27.9705 4.63095C27.9734 4.46545 27.9443 4.51602 28.0889 4.43114C28.1971 4.36772 28.3072 4.3072 28.4306 4.23735Z" fill="#F2F2F2"/>
<path d="M21.1343 9.86346C21.1427 9.83766 21.1527 9.81227 21.1591 9.78594C21.2005 9.61515 21.2737 9.45753 21.3543 9.30249C21.5262 8.9719 21.6971 8.64069 21.8672 8.30906C22.2554 7.55212 22.6426 6.79466 23.0309 6.03782C23.16 5.7861 23.2807 5.52919 23.4236 5.28544C23.6321 4.93008 23.9509 4.73038 24.3614 4.6795C24.6148 4.6481 24.8558 4.69452 25.0775 4.81464C25.4477 5.01517 25.6643 5.32907 25.7255 5.74651C25.7692 6.04497 25.6988 6.31991 25.5558 6.58273C25.3176 7.02079 25.0857 7.46227 24.8509 7.90219C24.5536 8.45922 24.2559 9.01615 23.9587 9.57329C23.7549 9.95538 23.5516 10.3378 23.3479 10.72C23.0418 11.2939 22.7352 11.8676 22.4293 12.4416C22.3547 12.5817 22.2855 12.7249 22.2069 12.8626C21.9769 13.2653 21.6257 13.4736 21.1642 13.4957C20.7916 13.5135 20.4796 13.3761 20.2208 13.1126C20.1059 12.9956 20.0252 12.8542 19.9504 12.7101C19.6285 12.0898 19.2992 11.4735 18.9674 10.8586C18.8822 10.7006 18.8033 10.5394 18.7214 10.3798C18.7043 10.3466 18.6876 10.3129 18.6556 10.2784C18.6286 10.3984 18.5933 10.5075 18.5526 10.615C18.3588 11.1255 18.0959 11.5944 17.7432 12.0148C17.2422 12.6118 16.6272 13.0426 15.9018 13.3203C15.5437 13.4574 15.1732 13.5442 14.7922 13.5855C14.4372 13.6239 14.0824 13.6172 13.7292 13.5635C13.1636 13.4776 12.6303 13.2954 12.1355 13.0081C11.8467 12.8405 11.5802 12.6407 11.3345 12.414C11.2481 12.3344 11.1608 12.2559 11.0857 12.1654C11.0483 12.1203 11.0285 12.1583 11.0102 12.1813C10.8714 12.355 10.7012 12.4966 10.5366 12.6435C10.2789 12.8738 9.99024 13.0604 9.68099 13.2126C9.20759 13.4458 8.71337 13.6172 8.18597 13.6789C7.35628 13.7761 6.55354 13.6732 5.78447 13.3427C5.33242 13.1483 4.91986 12.8877 4.55382 12.5587C4.15421 12.1995 3.82061 11.7865 3.56526 11.3116C3.29529 10.8096 3.10803 10.2793 3.04004 9.71319C2.95268 8.98485 3.00191 8.26802 3.25084 7.57025C3.5293 6.78948 3.97534 6.12384 4.59849 5.57728C5.11023 5.12844 5.69555 4.81298 6.35093 4.63027C6.75614 4.51731 7.16819 4.44477 7.59143 4.45275C8.10763 4.46249 8.56683 4.76582 8.73606 5.23881C8.96022 5.86548 8.72974 6.45225 8.16266 6.76958C8.02918 6.8443 7.8787 6.86295 7.72874 6.87902C7.44054 6.90969 7.15264 6.93778 6.8776 7.04172C6.61116 7.14235 6.36845 7.27998 6.15838 7.47222C5.74799 7.84768 5.52373 8.31787 5.46207 8.86671C5.36465 9.73464 5.80012 10.5695 6.56431 10.9953C6.88848 11.176 7.23431 11.2631 7.60469 11.2645C8.19623 11.2668 8.71637 11.0732 9.17889 10.7091C9.34895 10.5752 9.48419 10.4105 9.62109 10.2463C9.71053 10.139 9.80504 10.0359 9.88484 9.92067C9.92888 9.85704 9.94122 9.7932 9.92857 9.71599C9.89894 9.53567 9.88722 9.35338 9.88059 9.17036C9.86411 8.71168 9.91407 8.26097 10.0374 7.81939C10.2143 7.18619 10.513 6.61641 10.9273 6.10425C11.2675 5.68371 11.6745 5.34358 12.14 5.07517C12.5283 4.85132 12.9358 4.66727 13.3833 4.5911C13.6605 4.54394 13.9373 4.54218 14.1943 4.67017C14.5752 4.85982 14.8159 5.16471 14.8789 5.59044C14.9321 5.94901 14.8487 6.2795 14.6129 6.55848C14.4502 6.75093 14.2526 6.89809 13.9967 6.95405C13.7298 7.0125 13.4772 7.11105 13.2528 7.26941C13.0107 7.4403 12.8118 7.65016 12.6581 7.9081C12.496 8.18014 12.3881 8.46752 12.3549 8.78039C12.3014 9.28674 12.3952 9.7649 12.6712 10.1971C12.9807 10.6814 13.4106 11.0063 13.9826 11.1116C14.4873 11.2045 14.9741 11.1314 15.4271 10.8853C15.7219 10.7252 15.9528 10.4907 16.145 10.2177C16.1555 10.2029 16.1755 10.1859 16.1665 10.1682C16.157 10.1497 16.1319 10.1596 16.114 10.1596C15.7549 10.1593 15.3958 10.1607 15.0367 10.1593C14.8486 10.1586 14.6648 10.133 14.4957 10.0425C14.1623 9.86419 13.9822 9.58075 13.9341 9.21129C13.8975 8.93034 13.9672 8.67323 14.1324 8.44378C14.3125 8.19361 14.553 8.04656 14.8653 8.02179C14.9858 8.01225 15.1065 8.00717 15.2271 8.00676C15.9315 8.00438 16.6358 8.00562 17.3402 8.00562C17.3558 8.00562 17.3713 8.00583 17.3869 8.00562C17.4469 8.00479 17.4504 8.00013 17.4234 7.94873C17.3446 7.79908 17.2636 7.65067 17.186 7.50041C17.0072 7.15396 16.8065 6.81901 16.6356 6.46842C16.4011 5.98725 16.486 5.43053 16.8557 5.04242C17.0506 4.83775 17.2987 4.72976 17.5739 4.67991C18.0991 4.58478 18.6265 4.90117 18.8456 5.31156C19.0212 5.64028 19.1887 5.97336 19.3589 6.30478C19.7761 7.11665 20.1927 7.92883 20.6097 8.7408C20.7264 8.96796 20.8415 9.19596 20.9607 9.42177C21.0342 9.56168 21.0905 9.70697 21.1343 9.86346Z" fill="#F2F2F2"/>
</svg>
