<svg width="20" height="21" viewBox="0 0 20 21" fill="none" xmlns="http://www.w3.org/2000/svg">
<path d="M9.99984 19.4583C5.05817 19.4583 1.0415 15.4416 1.0415 10.5C1.0415 5.55829 5.05817 1.54163 9.99984 1.54163C14.9415 1.54163 18.9582 5.55829 18.9582 10.5C18.9582 15.4416 14.9415 19.4583 9.99984 19.4583ZM9.99984 2.79163C5.74984 2.79163 2.2915 6.24996 2.2915 10.5C2.2915 14.75 5.74984 18.2083 9.99984 18.2083C14.2498 18.2083 17.7082 14.75 17.7082 10.5C17.7082 6.24996 14.2498 2.79163 9.99984 2.79163Z" fill="#292D32"/>
<path d="M13.0919 13.775C12.9835 13.775 12.8752 13.75 12.7752 13.6833L10.1919 12.1416C9.55019 11.7583 9.0752 10.9166 9.0752 10.175V6.7583C9.0752 6.41663 9.35853 6.1333 9.7002 6.1333C10.0419 6.1333 10.3252 6.41663 10.3252 6.7583V10.175C10.3252 10.475 10.5752 10.9166 10.8335 11.0666L13.4169 12.6083C13.7169 12.7833 13.8085 13.1666 13.6335 13.4666C13.5085 13.6666 13.3002 13.775 13.0919 13.775Z" fill="#292D32"/>
</svg>
